<svg xmlns="http://www.w3.org/2000/svg" xmlns:xlink="http://www.w3.org/1999/xlink" version="1.1" baseProfile="full" viewBox="0 0 200 200" width="100" height="100">
<g fill="black">
<polygon points="89,33 171,33 171,37 89,37 "></polygon>
<polygon points="171,33 147,35 159,23 "></polygon>
<polygon points="95,15 95,52 83,58 83,13 "></polygon>
<polygon points="95,15 98,17 93,20 "></polygon>
<polygon points="50,53 50,142 38,148 38,47 "></polygon>
<polygon points="44,53 148,53 148,57 44,57 "></polygon>
<polygon points="154,55 154,142 142,148 142,55 "></polygon>
<polygon points="142,53 148,48 159,57 154,61 142,55 "></polygon>
<polygon points="44,138 148,138 148,142 44,142 "></polygon>
<polygon points="34.8,156 34.9,159.8 34.9,163.6 34.4,167.3 33.3,170.8 31.7,174.2 29.7,177.4 27.1,180.3 24.1,183 20.7,185.4 16.9,187.5 12.6,176.3 15.7,175.3 18.6,174.2 21.1,172.9 23.4,171.4 25.5,169.6 27.5,167.6 29.2,165.2 30.8,162.5 32.2,159.4 33,155.9 "></polygon>
<polygon points="16.9,187.5 12.3,187.3 9.1,184 9.3,179.5 12.6,176.3 "></polygon>
<polygon points="64.3,155.8 67.2,157.7 70.1,159.3 72.8,161.1 75.1,163.1 77.2,165.2 79,167.6 80.4,170.1 81.5,172.9 82.1,175.8 82.3,178.8 70.4,177.1 71,175.8 71.3,174.3 71.4,172.7 71.3,170.9 70.8,169 70.1,166.8 68.9,164.6 67.5,162.1 65.7,159.5 63.2,157.3 "></polygon>
<polygon points="82.3,178.8 79.9,182.7 75.5,183.9 71.6,181.5 70.4,177.1 "></polygon>
<polygon points="105.3,155.6 109.3,157.4 113.3,158.9 116.8,160.6 120.1,162.4 123,164.4 125.6,166.5 127.9,168.8 129.8,171.3 131.4,174.1 132.5,177.1 120.6,178.8 120.7,177.4 120.5,175.8 119.9,174 119,172 117.6,169.8 115.8,167.4 113.6,165 111,162.4 108,159.7 104.4,157.2 "></polygon>
<polygon points="132.5,177.1 131.3,181.5 127.4,183.9 123,182.7 120.6,178.8 "></polygon>
<polygon points="149.2,154.6 154.4,156.5 159.3,158.4 163.8,160.4 167.9,162.5 171.6,164.8 175,167.1 178.1,169.5 180.8,172.1 183.1,174.8 185.1,177.7 174.2,182.8 173.6,180.8 172.5,178.5 170.9,176.2 169,173.6 166.6,171 163.8,168.3 160.6,165.4 156.9,162.4 152.9,159.3 148.4,156.2 "></polygon>
<polygon points="185.1,177.7 185.3,182.3 182.2,185.7 177.7,185.8 174.2,182.8 "></polygon>
<polygon points="72,76 121,76 121,80 72,80 "></polygon>
<polygon points="121,76 105,78 113,69 "></polygon>
<polygon points="102,67 102,90 90,96 90,65 "></polygon>
<polygon points="102,67 105,69 100,72 "></polygon>
<polygon points="65,91 128,91 128,95 65,95 "></polygon>
<polygon points="128,91 104,93 116,81 "></polygon>
<polygon points="94,94 94,105 84,105 84,92 "></polygon>
<polygon points="94,94 96.5,96 92,99 "></polygon>
<polygon points="84,105 86,108 89,110 92,108 94,105 "></polygon>
<polygon points="94,105 93.4,108.8 92.4,112.4 91,115.7 89.2,118.7 87,121.3 84.4,123.7 81.5,125.6 78.3,127.2 74.9,128.4 71.2,129.6 70.7,128.3 73.9,126.5 76.5,124.3 78.7,122.1 80.5,119.8 81.9,117.6 82.9,115.2 83.6,112.8 84,110.3 84.1,107.7 84,105 "></polygon>
<polygon points="110,94 110,117 100,117 100,92 "></polygon>
<polygon points="110,94 112.5,96 108,99 "></polygon>
<polygon points="100,117 102,120 105,122 108,120 110,117 "></polygon>
<polygon points="110,117 109.9,119.3 109.6,121.5 109,123.6 108.2,125.6 107.1,127.5 105.6,129.1 103.8,130.4 101.7,131.3 99.6,131.8 97.5,132 97.5,122 98.1,121.9 98.6,121.8 98.8,121.7 98.9,121.6 99.1,121.5 99.3,121.1 99.5,120.5 99.7,119.6 99.9,118.4 100,117 "></polygon>
<polygon points="97.5,127 97.5,122 85.9,122 85.9,124.5 "></polygon>
<polygon points="83.2,104.9 81.9,107.1 80.5,109.1 78.9,111 77.3,112.7 75.5,114.3 73.7,115.8 71.7,117.2 69.6,118.4 67.4,119.4 65.5,120.7 64.4,119.2 66,117.7 67.1,115.7 68,113.8 68.9,111.9 69.7,110 70.4,108.2 70.9,106.3 71.4,104.5 71.7,102.7 72,100.8 "></polygon>
<polygon points="71.6,101.8 83.2,104.9 72.5,99.4 "></polygon>
<polygon points="83.2,104.9 85.4,107.8 79.7,109 "></polygon>
<polygon points="112.3,100.8 114.2,102 116.3,102.8 118.3,103.7 120.2,104.7 122,105.8 123.7,107 125.3,108.3 126.8,109.7 128.2,111.3 129.4,112.9 118.3,117.4 118.2,116.2 118.1,114.9 117.8,113.5 117.3,112 116.7,110.5 116,108.9 115.1,107.2 114.1,105.5 112.9,103.7 111.3,102.3 "></polygon>
<polygon points="129.4,112.9 129.3,117.5 126.1,120.7 121.5,120.6 118.3,117.4 "></polygon>
</g>
</svg>
