<svg xmlns="http://www.w3.org/2000/svg" xmlns:xlink="http://www.w3.org/1999/xlink" version="1.1" baseProfile="full" viewBox="0 0 200 200" width="100" height="100">
<g fill="black">
<polygon points="21.3,15.7 25.1,17.4 28.9,19 32.4,20.9 35.8,22.9 38.9,25.1 41.7,27.5 44.4,30.1 46.9,32.8 49.1,35.6 51.1,38.7 40.2,43.8 39.3,41.2 38.2,38.6 36.8,35.9 35.2,33.3 33.3,30.7 31.2,28 28.9,25.3 26.3,22.6 23.6,19.8 20.4,17.2 "></polygon>
<polygon points="51.1,38.7 51.3,43.2 48.2,46.7 43.7,46.8 40.2,43.8 "></polygon>
<polygon points="14,84 44,84 44,88 14,88 "></polygon>
<polygon points="50,86 50,156 38,162 38,86 "></polygon>
<polygon points="38,84 44,79 55,88 50,92 38,86 "></polygon>
<polygon points="13.6,171.9 16.7,169.6 19.8,167.5 23,165.6 26.3,163.8 29.6,162.2 32.9,160.8 36.3,159.6 39.7,158.6 43.2,157.9 46.6,157.1 47.3,158.8 44.3,160.5 41.6,162.6 38.9,164.6 36.3,166.7 33.7,168.8 31.2,171 28.7,173.3 26.4,175.7 24,178.1 21.8,180.7 "></polygon>
<polygon points="21.8,180.7 13.6,171.9 12.1,173.2 "></polygon>
<polygon points="21.8,180.7 25.3,181.5 24.1,174.4 "></polygon>
<polygon points="25.2,172.6 35.9,162.7 43.1,157.4 49.8,156 55.7,158.1 61.7,161.5 70.6,165.5 84.6,169.5 106,172.7 136.6,173.9 178.5,172.4 179.4,185.5 136.5,186.4 104.7,184.4 82.1,180.3 66.7,175 56.9,169.5 51.1,165.1 48.3,163 45.4,162.9 38.3,166.1 26.3,174 "></polygon>
<polygon points="179.4,185.5 178.5,172.4 189.6,171.7 "></polygon>
<polygon points="76,24 179,24 179,28 76,28 "></polygon>
<polygon points="185,26 185,51 173,57 173,26 "></polygon>
<polygon points="173,24 179,19 190,28 185,32 173,26 "></polygon>
<polygon points="76,47 179,47 179,51 76,51 "></polygon>
<polygon points="82,24 82,76 70,76 70,18 "></polygon>
<polygon points="70,76 72.4,79.6 76,82 79.6,79.6 82,76 "></polygon>
<polygon points="82,76 81.4,86.9 80.5,97.3 79.2,107.1 77.5,116.4 75.3,125.1 72.8,133.3 69.7,140.9 66.2,147.8 62.2,154 57.7,159.5 56.2,158.4 58.9,152.2 61.3,145.6 63.6,138.6 65.5,131.2 67.1,123.3 68.3,114.8 69.3,105.9 69.8,96.5 70.1,86.5 70,76 "></polygon>
<polygon points="113.9,86.6 111.6,88.6 109,90.8 106,93.3 102.9,95.8 99.5,98.4 96.2,100.8 92.9,102.9 89.7,104.7 86.8,105.9 84.4,106.8 83.5,105.1 85.2,103.6 87,101.2 89.2,98.6 91.7,95.8 94.2,92.7 96.7,89.6 99.2,86.6 101.4,83.6 103.3,81 104.7,78.8 "></polygon>
<polygon points="104.1,79.6 113.9,86.6 105.1,78.4 "></polygon>
<polygon points="113.9,86.6 114.8,90.1 109.1,89.1 "></polygon>
<polygon points="85.6,102.9 88.8,103.1 92,103.2 95.3,103.4 98.6,103.5 102,103.6 105.4,103.7 108.9,103.8 112.5,103.9 116.1,104.1 119.8,104.1 120.1,105.8 116.6,106.9 113.1,108.2 109.7,109.4 106.3,110.4 102.9,111.3 99.5,112.1 96.2,112.9 92.9,113.6 89.6,114.3 86.3,114.9 "></polygon>
<polygon points="86.3,114.9 85.6,102.9 83.6,103 "></polygon>
<polygon points="86.3,114.9 88.5,117.8 92.1,111.5 "></polygon>
<polygon points="133.4,95 129.1,101 124.5,106.5 119.8,111.7 114.8,116.6 109.7,121 104.4,125.1 98.9,128.7 93.3,131.9 87.4,134.6 81.4,136.8 80.5,135.1 85.5,131.3 90.3,127.5 95,123.5 99.6,119.2 103.9,114.8 108.1,110.1 112.2,105.1 116.1,99.9 119.8,94.4 123.4,88.5 "></polygon>
<polygon points="122.8,89.4 133.4,95 123.9,87.7 "></polygon>
<polygon points="133.4,95 134.9,98.4 129.1,98.2 "></polygon>
<polygon points="140.3,115.3 134.9,121.9 129.3,128.1 123.5,133.9 117.6,139.1 111.5,143.9 105.2,148.2 98.7,152 92.1,155.3 85.3,157.9 78.3,159.8 77.6,158.1 83.7,154.4 89.5,150.6 95.2,146.5 100.7,142.1 106.1,137.4 111.3,132.3 116.3,126.9 121.2,121.1 125.9,114.9 130.5,108.3 "></polygon>
<polygon points="129.9,109.1 140.3,115.3 131,107.6 "></polygon>
<polygon points="140.3,115.3 141.5,118.6 135.7,118.2 "></polygon>
<polygon points="122.2,129.6 124.6,130.6 127,131.2 129.4,132 131.7,133.1 133.8,134.3 135.9,135.6 137.8,137.1 139.7,138.8 141.4,140.6 143,142.6 132.2,148 131.8,146.3 131.3,144.6 130.6,142.9 129.8,141.2 128.9,139.5 127.7,137.8 126.5,136.1 125,134.3 123.4,132.5 121.4,131.2 "></polygon>
<polygon points="143,142.6 143.2,147.1 140.3,150.6 135.7,150.9 132.2,148 "></polygon>
<polygon points="101.2,53.6 103.9,54.7 106.6,55.5 109.2,56.4 111.5,57.5 113.7,58.7 115.8,60.1 117.6,61.6 119.3,63.4 120.7,65.3 121.9,67.5 110.4,70.6 110.5,69.6 110.4,68.4 110.1,67 109.5,65.5 108.7,64 107.6,62.3 106.3,60.5 104.7,58.6 102.8,56.7 100.4,55.2 "></polygon>
<polygon points="121.9,67.5 121.3,72 117.7,74.8 113.2,74.2 110.4,70.6 "></polygon>
<polygon points="79,75 146,75 146,79 79,79 "></polygon>
<polygon points="146,75 122,77 134,65 "></polygon>
<polygon points="159.5,70 159.5,130.2 148.5,135.7 148.5,68 "></polygon>
<polygon points="159.5,70 162.2,72 157.5,75 "></polygon>
<polygon points="182.5,55 182.5,147 171.5,147 171.5,53 "></polygon>
<polygon points="182.5,55 185.2,57 180.5,60 "></polygon>
<polygon points="171.5,147 173.7,150.3 177,152.5 180.3,150.3 182.5,147 "></polygon>
<polygon points="182.5,147 182.3,149.4 182,151.7 181.3,154 180.3,156.1 178.9,158.1 177.1,159.7 175.1,161 172.9,161.8 170.6,162.3 168.2,162.5 168.2,151.5 169.2,151.4 169.8,151.3 170.2,151.1 170.5,151 170.6,150.8 170.8,150.6 171,150.1 171.2,149.4 171.4,148.3 171.5,147 "></polygon>
<polygon points="168.2,157 168.2,151.5 152.8,151.5 152.8,154.2 "></polygon>
</g>
</svg>
